PathFileType	4	(X/Y/Z)	C:/Users/beibeiliu/ov580/test_trc\sequence.6_training_dense_right.trc
DataRate	CameraRate	NumFrames	NumMarkers	Units	OrigDataRate	OrigDataStartFrame	OrigNumFrames
120	120	8	19	mm	120	197	314
Frame#	Time	ThumbCMC			ThumbMCP			ThumbIP			ThumbTip			IndexMCP			IndexPIP			IndexTip			MiddleMCP			MiddlePIP			MiddleTip			RingMCP			RingPIP			RingTip			PinkyMCP			PinkyPIP			PinkyTip			BackHand1			BackHand2			BackHand3	
		X0	Y0	Z0	X1	Y1	Z1	X2	Y2	Z2	X3	Y3	Z3	X4	Y4	Z4	X5	Y5	Z5	X6	Y6	Z6	X7	Y7	Z7	X8	Y8	Z8	X9	Y9	Z9	X10	Y10	Z10	X11	Y11	Z11	X12	Y12	Z12	X13	Y13	Z13	X14	Y14	Z14	X15	Y15	Z15	X16	Y16	Z16	X17	Y17	Z17	X18	Y18	Z18	
196	1.63333	143.873	-15.4181	2.79234	138.184	-35.3403	-22.0213	140.329	-46.2697	-45.7449	152.597	-55.0321	-61.912	153.047	3.3905	-55.8675	150.078	3.63649	-83.4977	149.242	0.678384	-103.452	170.189	-18.9328	-64.4138	164.712	-50.3283	-62.0246	163.302	-52.6759	-31.5371	185.095	-31.8986	-54.8409	175.666	-52.6632	-43.4236	174.915	-49.1012	-16.1388	204.083	-32.1996	-40.896	184.858	-49.4711	-31.5529	178.696	-39.6644	-12.1008	195.746	4.78562	-14.4548	191.906	7.76235	12.0822	166.156	10.0631	-1.78581	
197	1.64167	145.152	-13.8863	7.8651	138.078	-33.2628	-20.3259	139.041	-44.1456	-40.8341	150.929	-54.0021	-62.1861	151.738	4.92938	-57.3325	150.338	1.70507	-82.54	149.621	-8.64952	-105.674	170.549	-16.8734	-60.6644	166.569	-49.5799	-60.3002	164.959	-49.7471	-27.6873	183.734	-32.3733	-53.411	175.015	-52.1664	-42.3155	171.813	-45.2249	-12.3745	199.152	-30.1635	-40.7648	184.702	-50.1349	-31.1621	179.153	-38.5515	-10.2316	195.766	3.18112	-16.421	192.869	6.92132	14.8115	165.383	11.4015	-1.19557	
198	1.65	146.904	-11.853	3.44531	138.839	-30.9457	-15.3523	136.587	-42.9208	-42.9802	144.08	-53.8981	-58.2111	156.889	3.72032	-59.8844	152.883	-1.8373	-82.5566	147.77	-17.2138	-100.053	171.232	-21.8539	-63.3127	165.489	-48.691	-61.2783	160.723	-49.575	-28.066	186.604	-30.9512	-51.0278	172.438	-52.5116	-40.3203	168.16	-43.9508	-13.5967	200.582	-37.0342	-40.2712	185.291	-53.2052	-26.5465	176.681	-34.4154	-8.59693	193.479	4.45839	-14.6716	192.458	5.27953	13.9135	170.87	9.67212	-3.93312	
199	1.65833	145.64	-10.251	5.39286	133.533	-31.1458	-16.7676	138.029	-39.4444	-40.3095	142.732	-52.9467	-56.9673	153.881	3.91271	-56.9217	155.559	-5.16815	-79.966	146.95	-30.2721	-95.6173	171.825	-21.3761	-61.7728	161.44	-48.575	-58.6105	157.138	-48.7608	-26.7238	181.748	-35.1677	-51.1275	172.978	-54.8648	-38.2632	165.837	-40.8533	-11.2006	194.409	-38.4749	-39.1552	180.737	-53.3276	-24.2346	178.464	-38.3137	-4.81477	195.627	0.0427112	-13.6223	193.549	4.09813	11.2753	170.559	11.1645	1.90589	
200	1.66667	148.125	-10.2482	10.0411	134.661	-29.5801	-18.2464	133.657	-40.2155	-34.2841	140.804	-52.8784	-55.961	155.929	3.21823	-53.2587	152.48	-6.96713	-79.2729	142.245	-34.351	-88.6159	168.413	-21.3307	-60.4988	159.184	-46.2264	-60.9141	154.958	-48.3461	-28.5785	184.407	-32.7858	-48.1706	166.772	-52.7656	-36.1465	165.126	-40.7016	-9.47443	198.89	-41.2187	-35.8896	179.019	-54.3371	-20.8399	178.607	-35.6842	-2.9035	199.29	-1.00435	-15.7452	199.592	1.81322	15.8269	172.85	10.1	3.16669	
201	1.675	145.596	-9.15684	9.70577	133.043	-29.1315	-15.1403	132.471	-39.9318	-36.5471	140.178	-52.4201	-52.5718	159.592	2.36742	-56.689	152.848	-9.62983	-79.776	147.145	-34.6791	-85.3488	171.104	-22.2626	-61.2191	161.382	-48.9826	-58.2576	155.441	-48.876	-26.6777	182.432	-35.4476	-47.6825	169.162	-54.615	-36.0854	166.755	-45.2396	-9.98123	191.565	-42.1589	-36.8874	180.076	-55.4842	-22.7208	173.768	-37.0355	-6.0765	196.847	-3.08119	-14.416	198.822	2.00338	14.8709	173.09	11.1828	0.651447	
202	1.68333	149.17	-8.57011	7.77125	136.777	-28.1653	-15.4809	134.889	-39.4356	-32.7719	143.647	-51.4078	-50.9292	160.141	2.16999	-55.9932	153.532	-8.61379	-79.4869	141.515	-35.6502	-85.4335	168.614	-20.3182	-59.7668	158.139	-47.7193	-57.6826	157.513	-50.1893	-26.9711	183.206	-38.1092	-46.8963	168.427	-54.9318	-36.0715	165.205	-43.7281	-9.14524	193.214	-44.5698	-36.1604	179.501	-56.7532	-21.2456	172.914	-34.5051	-3.618	195.378	-3.65709	-9.97442	199.052	-1.31806	15.8373	175.737	8.49667	3.1182	
203	1.69167	149.045	-8.854	10.058	136.827	-27.5592	-14.5841	135.831	-39.0529	-32.4018	139.886	-53.1478	-51.275	160.731	4.04046	-56.1253	155.987	-7.43373	-78.4539	144.505	-30.8612	-88.6416	170.104	-22.5984	-59.4952	158.779	-49.0542	-56.3667	156.011	-46.2803	-22.4548	181.142	-35.3862	-47.3309	168.196	-56.4165	-34.3377	166.604	-45.3281	-8.17671	192.288	-41.8187	-35.0119	176.505	-55.1404	-18.5988	174.027	-41.2493	0.0504867	201.848	-4.45204	-12.6127	200.959	-2.90302	19.3159	177.257	7.75481	2.35515	
